<svg width="41" height="21" viewBox="0 0 41 21" fill="none" xmlns="http://www.w3.org/2000/svg">
<path d="M15.3329 3.42916L13.7475 2.43701C12.8384 3.52601 12.1806 4.80204 11.8208 6.17424C11.4611 7.54645 11.4082 8.9811 11.6661 10.376L13.4703 9.95952C13.2698 8.80101 13.3331 7.61221 13.6556 6.48157C13.9781 5.35094 14.5514 4.30759 15.3329 3.42916Z" fill="white"/>
<path d="M27.8488 6.63907L29.6503 6.22314C29.2669 4.85806 28.5891 3.59352 27.6647 2.5184C26.7403 1.44328 25.5916 0.583678 24.2994 0L23.3182 1.5856C24.4028 2.03618 25.3727 2.72397 26.1567 3.59845C26.9407 4.47293 27.5189 5.5119 27.8488 6.63907Z" fill="white"/>
<path d="M26.1731 7.50124C25.5338 4.73193 23.5205 2.75513 20.7973 2.73726L20.6557 2.12427C20.5729 1.76546 20.3509 1.45424 20.0386 1.2591C19.7263 1.06395 19.3493 1.00086 18.9905 1.0837C18.6317 1.16654 18.3204 1.38853 18.1253 1.70082C17.9302 2.01312 17.8671 2.39015 17.9499 2.74897L18.0914 3.36195C15.6445 4.57253 14.7065 7.22153 15.348 10.0004L16.3892 14.5104L15.0051 16.7303L15.2132 17.632L29.6467 14.2998L29.4385 13.3981L27.2178 12.0105L26.1731 7.50124Z" fill="white"/>
<path d="M23.054 18.6728C23.1757 18.6468 23.294 18.6069 23.4066 18.5538C23.6789 18.4273 23.9168 18.2373 24.1005 17.9999C24.2843 17.7624 24.4084 17.4844 24.4625 17.1891C24.5026 16.9448 24.4935 16.695 24.4358 16.4543L20.8222 17.2886C20.9365 17.767 21.2351 18.1809 21.6531 18.4401C22.0711 18.6994 22.5746 18.783 23.054 18.6728Z" fill="white"/>
<path d="M5 4.00722C5 3.47678 5.21071 2.96808 5.58579 2.593C5.96086 2.21793 6.46957 2.00722 7 2.00722C7.26522 2.00722 7.51957 1.90186 7.70711 1.71432C7.89464 1.52679 8 1.27243 8 1.00722C8 0.742 7.89464 0.487646 7.70711 0.300109C7.51957 0.112573 7.26522 0.00721617 7 0.00721617C5.93913 0.00721617 4.92172 0.428644 4.17157 1.17879C3.42143 1.92893 3 2.94635 3 4.00722V7.00722C3 7.53765 2.78929 8.04636 2.41421 8.42143C2.03914 8.7965 1.53043 9.00722 1 9.00722C0.734784 9.00722 0.48043 9.11257 0.292893 9.30011C0.105357 9.48765 0 9.742 0 10.0072C0 10.2724 0.105357 10.5268 0.292893 10.7143C0.48043 10.9019 0.734784 11.0072 1 11.0072C1.53043 11.0072 2.03914 11.2179 2.41421 11.593C2.78929 11.9681 3 12.4768 3 13.0072V16.0072C3 17.0681 3.42143 18.0855 4.17157 18.8356C4.92172 19.5858 5.93913 20.0072 7 20.0072C7.26522 20.0072 7.51957 19.9019 7.70711 19.7143C7.89464 19.5268 8 19.2724 8 19.0072C8 18.742 7.89464 18.4876 7.70711 18.3001C7.51957 18.1126 7.26522 18.0072 7 18.0072C6.46957 18.0072 5.96086 17.7965 5.58579 17.4214C5.21071 17.0464 5 16.5376 5 16.0072V13.0072C4.99679 12.4377 4.87201 11.8755 4.63403 11.3582C4.39604 10.8408 4.05032 10.3802 3.62 10.0072C4.05032 9.63422 4.39604 9.17363 4.63403 8.65627C4.87201 8.1389 4.99679 7.57668 5 7.00722V4.00722Z" fill="white"/>
<path d="M38.5858 8.42143C38.9609 8.7965 39.4696 9.00722 40 9.00722C40.2652 9.00722 40.5196 9.11257 40.7071 9.30011C40.8946 9.48765 41 9.742 41 10.0072C41 10.2724 40.8946 10.5268 40.7071 10.7143C40.5196 10.9019 40.2652 11.0072 40 11.0072C39.4696 11.0072 38.9609 11.2179 38.5858 11.593C38.2107 11.9681 38 12.4768 38 13.0072V16.0072C38 17.0681 37.5786 18.0855 36.8284 18.8356C36.0783 19.5858 35.0609 20.0072 34 20.0072C33.7348 20.0072 33.4804 19.9019 33.2929 19.7143C33.1054 19.5268 33 19.2724 33 19.0072C33 18.742 33.1054 18.4876 33.2929 18.3001C33.4804 18.1126 33.7348 18.0072 34 18.0072C34.5304 18.0072 35.0391 17.7965 35.4142 17.4214C35.7893 17.0464 36 16.5376 36 16.0072V13.0072C36.0032 12.4377 36.128 11.8755 36.366 11.3582C36.604 10.8408 36.9497 10.3802 37.38 10.0072C36.9497 9.63422 36.604 9.17363 36.366 8.65627C36.128 8.1389 36.0032 7.57668 36 7.00722V4.00722C36 3.47678 35.7893 2.96808 35.4142 2.593C35.0391 2.21793 34.5304 2.00722 34 2.00722C33.7348 2.00722 33.4804 1.90186 33.2929 1.71432C33.1054 1.52679 33 1.27243 33 1.00722C33 0.742 33.1054 0.487646 33.2929 0.300109C33.4804 0.112573 33.7348 0.00721617 34 0.00721617C35.0609 0.00721617 36.0783 0.428644 36.8284 1.17879C37.5786 1.92893 38 2.94635 38 4.00722V7.00722C38 7.53765 38.2107 8.04636 38.5858 8.42143Z" fill="white"/>
</svg>
